<svg xmlns="http://www.w3.org/2000/svg" width="1280" height="640" viewBox="0 0 1280 640" fill="none">
  <defs>
    <linearGradient id="bg" x1="0" y1="0" x2="1280" y2="640" gradientUnits="userSpaceOnUse">
      <stop offset="0" stop-color="#E0F2FE" />
      <stop offset="0.52" stop-color="#C7D2FE" />
      <stop offset="1" stop-color="#D9F99D" />
    </linearGradient>
    <linearGradient id="panel" x1="162" y1="126" x2="1118" y2="514" gradientUnits="userSpaceOnUse">
      <stop offset="0" stop-color="#FFFFFF" stop-opacity="0.96" />
      <stop offset="1" stop-color="#FFFFFF" stop-opacity="0.88" />
    </linearGradient>
  </defs>

  <rect width="1280" height="640" fill="url(#bg)" />

  <circle cx="120" cy="120" r="90" fill="#0EA5E9" fill-opacity="0.14" />
  <circle cx="1150" cy="520" r="120" fill="#4F46E5" fill-opacity="0.14" />

  <rect x="82" y="74" width="1116" height="492" rx="34" fill="url(#panel)" stroke="#D4D4D8" stroke-width="2" />

  <rect x="146" y="146" width="78" height="78" rx="18" fill="#0F172A" />
  <path d="M166 204V166L185 188V166L204 204" stroke="#FFFFFF" stroke-width="6" stroke-linecap="round" stroke-linejoin="round" />

  <text x="252" y="201" fill="#0F172A" font-family="Inter, Arial, sans-serif" font-size="58" font-weight="800">NavUI</text>
  <text x="252" y="245" fill="#334155" font-family="Inter, Arial, sans-serif" font-size="24" font-weight="500">Open-source navigation component library</text>

  <text x="146" y="324" fill="#111827" font-family="Inter, Arial, sans-serif" font-size="42" font-weight="700">Ship Navigation Faster</text>
  <text x="146" y="374" fill="#475569" font-family="Inter, Arial, sans-serif" font-size="26" font-weight="500">Discover. Preview. Copy. Contribute.</text>

  <rect x="146" y="420" width="230" height="58" rx="14" fill="#0F172A" />
  <text x="188" y="458" fill="#FFFFFF" font-family="Inter, Arial, sans-serif" font-size="25" font-weight="700">Explore Gallery</text>

  <rect x="394" y="420" width="248" height="58" rx="14" fill="#FFFFFF" stroke="#0F172A" stroke-width="2" />
  <text x="438" y="458" fill="#0F172A" font-family="Inter, Arial, sans-serif" font-size="25" font-weight="700">View Components</text>

  <rect x="844" y="182" width="282" height="300" rx="20" fill="#0F172A" fill-opacity="0.96" />
  <rect x="874" y="220" width="220" height="16" rx="8" fill="#FFFFFF" fill-opacity="0.85" />
  <rect x="874" y="254" width="168" height="13" rx="6.5" fill="#93C5FD" />
  <rect x="874" y="286" width="202" height="13" rx="6.5" fill="#C4B5FD" />
  <rect x="874" y="318" width="176" height="13" rx="6.5" fill="#86EFAC" />
  <rect x="874" y="366" width="136" height="42" rx="12" fill="#FFFFFF" />
  <rect x="1020" y="366" width="74" height="42" rx="12" fill="#22C55E" />
</svg>
