<svg xmlns="http://www.w3.org/2000/svg" width="1280" height="640" viewBox="0 0 1280 640" fill="none">
  <defs>
    <linearGradient id="bg" x1="0" y1="0" x2="1280" y2="640" gradientUnits="userSpaceOnUse">
      <stop offset="0" stop-color="#020617" />
      <stop offset="0.5" stop-color="#111827" />
      <stop offset="1" stop-color="#0F172A" />
    </linearGradient>
    <linearGradient id="panel" x1="82" y1="74" x2="1198" y2="566" gradientUnits="userSpaceOnUse">
      <stop offset="0" stop-color="#0B1220" stop-opacity="0.96" />
      <stop offset="1" stop-color="#111827" stop-opacity="0.92" />
    </linearGradient>
  </defs>

  <rect width="1280" height="640" fill="url(#bg)" />

  <circle cx="124" cy="116" r="92" fill="#0EA5E9" fill-opacity="0.16" />
  <circle cx="1148" cy="520" r="124" fill="#22C55E" fill-opacity="0.12" />

  <rect x="82" y="74" width="1116" height="492" rx="34" fill="url(#panel)" stroke="#334155" stroke-width="2" />

  <rect x="146" y="146" width="78" height="78" rx="18" fill="#E2E8F0" />
  <path d="M166 204V166L185 188V166L204 204" stroke="#0F172A" stroke-width="6" stroke-linecap="round" stroke-linejoin="round" />

  <text x="252" y="201" fill="#F8FAFC" font-family="Inter, Arial, sans-serif" font-size="58" font-weight="800">NavUI</text>
  <text x="252" y="245" fill="#94A3B8" font-family="Inter, Arial, sans-serif" font-size="24" font-weight="500">Open-source navigation component library</text>

  <text x="146" y="324" fill="#E2E8F0" font-family="Inter, Arial, sans-serif" font-size="42" font-weight="700">Ship Navigation Faster</text>
  <text x="146" y="374" fill="#CBD5E1" font-family="Inter, Arial, sans-serif" font-size="26" font-weight="500">Discover. Preview. Copy. Contribute.</text>

  <rect x="146" y="420" width="230" height="58" rx="14" fill="#E2E8F0" />
  <text x="188" y="458" fill="#0F172A" font-family="Inter, Arial, sans-serif" font-size="25" font-weight="700">Explore Gallery</text>

  <rect x="394" y="420" width="248" height="58" rx="14" fill="#0F172A" stroke="#E2E8F0" stroke-width="2" />
  <text x="438" y="458" fill="#E2E8F0" font-family="Inter, Arial, sans-serif" font-size="25" font-weight="700">View Components</text>

  <rect x="844" y="182" width="282" height="300" rx="20" fill="#020617" stroke="#334155" />
  <rect x="874" y="220" width="220" height="16" rx="8" fill="#F8FAFC" fill-opacity="0.9" />
  <rect x="874" y="254" width="168" height="13" rx="6.5" fill="#38BDF8" />
  <rect x="874" y="286" width="202" height="13" rx="6.5" fill="#818CF8" />
  <rect x="874" y="318" width="176" height="13" rx="6.5" fill="#34D399" />
  <rect x="874" y="366" width="136" height="42" rx="12" fill="#F8FAFC" />
  <rect x="1020" y="366" width="74" height="42" rx="12" fill="#22C55E" />
</svg>
